#!OML:ASF I:\Actors\actors\Patient Classification 2\Patient 1\Session 1\actor1.ASF
:FULLY-SPECIFIED
:DEGREES
436
root -0.777902 18.7614 5.14936 2.96474 0.8578 -3.80231
lowerback 7.35129 2.53354 -6.77668
upperback 1.84396 2.72405 -4.87991
thorax -2.28327 1.37738 -1.51664
lowerneck -12.1709 1.89258 1.35322
upperneck 35.0094 2.81649 -0.580956
head 13.9715 1.3233 -0.0438065
rclavicle 1.31198e-014 3.18055e-015
rhumerus 46.4072 62.911 -11.0839
rradius 110.417
rwrist -21.7916
rhand -1.14784 -51.9601
rfingers 7.12502
rthumb 24.4905 -80.4142
lclavicle 1.31198e-014 3.18055e-015
lhumerus 10.1826 -41.9549 52.4595
lradius 82.1484
lwrist 40.1952
lhand 0.135869 -25.0416
lfingers 7.12502
lthumb 25.7205 3.24037
rfemur 0 0 0
rtibia 0
rfoot 0 0
rtoes 0
lfemur -8.58737 -8.58948 -9.4198
ltibia 22.7204
lfoot -22.7697 15.6376
ltoes -54.6163
437
root -0.772307 18.7606 5.13537 2.89872 0.278845 -3.67614
lowerback 7.35299 2.65361 -6.88556
upperback 1.89443 2.8788 -4.82651
thorax -2.24327 1.45259 -1.41487
lowerneck -12.2595 1.99141 1.29508
upperneck 35.0634 2.99711 -0.637119
head 14.0183 1.38468 -0.0272816
rclavicle -1.07344e-014 -2.22639e-014
rhumerus 44.3283 60.8006 -15.6832
rradius 107.626
rwrist -18.2844
rhand -3.66924 -49.1418
rfingers 7.12502
rthumb 22.0716 -77.9022
lclavicle -1.07344e-014 -2.22639e-014
lhumerus 10.0613 -41.7073 52.77
lradius 82.0277
lwrist 40.1137
lhand 0.106164 -25.1824
lfingers 7.12502
lthumb 25.6921 3.10376
rfemur 0 0 0
rtibia 0
rfoot 0 0
rtoes 0
lfemur -8.30254 -8.42629 -9.65045
ltibia 22.5823
lfoot -22.8937 16.0083
ltoes -54.5443
438
root -0.765704 18.7592 5.12379 2.79767 -0.200191 -3.53612
lowerback 7.34988 2.79463 -6.91472
upperback 1.94639 3.06662 -4.8424
thorax -2.193 1.54386 -1.43205
lowerneck -12.3835 2.01556 1.15414
upperneck 35.2498 3.01626 -0.470158
head 14.1248 1.39465 0.0705594
rclavicle 1.66979e-014 -2.54444e-014
rhumerus 41.899 58.4787 -20.225
rradius 104.302
rwrist -13.6305
rhand -4.55816 -50.5688
rfingers 7.12502
rthumb 21.2179 -79.4276
lclavicle 1.66979e-014 -2.54444e-014
lhumerus 10.1491 -41.6294 52.9569
lradius 81.8263
lwrist 39.9692
lhand -0.188086 -25.5378
lfingers 7.12502
lthumb 25.4102 2.78875
rfemur 0 0 0
rtibia 0
rfoot 0 0
rtoes 0
lfemur -8.0403 -8.25082 -9.8923
ltibia 22.5092
lfoot -23.0052 16.2567
ltoes -54.5326
439
root -0.76228 18.758 5.11479 2.69287 -0.502089 -3.36645
lowerback 7.26577 2.91627 -6.89802
upperback 2.02993 3.24175 -4.962
thorax -2.05589 1.62708 -1.57519
lowerneck -12.4431 1.97951 1.06577
upperneck 35.3551 2.91201 -0.251589
head 14.1789 1.36652 0.160039
rclavicle -3.65764e-014 -6.36111e-015
rhumerus 39.5897 56.2313 -23.8874
rradius 100.752
rwrist -10.644
rhand -6.23159 -49.1558
rfingers 7.12502
rthumb 19.6097 -78.1868
lclavicle -3.65764e-014 -6.36111e-015
lhumerus 10.5203 -41.6744 52.8729
lradius 81.6131
lwrist 39.9004
lhand -0.379076 -25.7941
lfingers 7.12502
lthumb 25.2272 2.55836
rfemur 0 0 0
rtibia 0
rfoot 0 0
rtoes 0
lfemur -7.84014 -8.09928 -10.1382
ltibia 22.4703
lfoot -23.0551 16.3687
ltoes -54.5453
440
root -0.759403 18.7575 5.10832 2.59925 -0.570393 -3.3057
lowerback 7.21299 2.988 -6.81092
upperback 2.07755 3.35126 -5.03918
thorax -1.97007 1.67939 -1.70911
lowerneck -12.3419 1.93636 1.0108
upperneck 35.3543 2.8175 -0.115664
head 14.1509 1.33792 0.208868
rclavicle 8.34896e-015 -2.22639e-014
rhumerus 37.7333 54.303 -25.9589
rradius 97.6816
rwrist -8.92869
rhand -8.16857 -48.4717
rfingers 7.12502
rthumb 17.7466 -77.6819
lclavicle 8.34896e-015 -2.22639e-014
lhumerus 10.8645 -41.7844 52.8197
lradius 81.451
lwrist 39.8766
lhand -0.412651 -25.8644
lfingers 7.12502
lthumb 25.1951 2.49253
rfemur 0 0 0
rtibia 0
rfoot 0 0
rtoes 0
lfemur -7.71616 -8.04758 -10.2384
ltibia 22.4443
lfoot -23.0221 16.3997
ltoes -54.5699
